<?xml version="1.0" standalone="no"?>
<!DOCTYPE svg PUBLIC "-//W3C//DTD SVG 20010904//EN"
 "http://www.w3.org/TR/2001/REC-SVG-20010904/DTD/svg10.dtd">
<svg version="1.0" xmlns="http://www.w3.org/2000/svg"
 width="640.000000pt" height="640.000000pt" viewBox="0 0 640.000000 640.000000"
 preserveAspectRatio="xMidYMid meet">
<metadata>
Created by potrace 1.14, written by Peter Selinger 2001-2017
</metadata>
<g transform="translate(0.000000,640.000000) scale(0.100000,-0.100000)"
fill="#000000" stroke="none">
<path d="M380 5749 c-25 -5 -52 -12 -60 -15 -8 -4 -20 -8 -26 -9 -24 -5 -120
-74 -157 -111 -52 -52 -99 -136 -120 -211 -16 -58 -17 -190 -17 -1736 0 -921
3 -1677 7 -1681 4 -4 8 -13 8 -19 1 -26 30 -95 60 -142 102 -159 260 -233 475
-225 13 1 50 1 185 0 11 0 43 1 70 1 28 1 55 1 60 0 104 -4 225 -5 225 0 0 3
23 3 50 -1 28 -4 50 -3 50 0 0 4 19 4 43 1 23 -4 59 -4 79 0 21 3 40 4 42 1 7
-7 324 -4 335 2 5 4 12 3 15 -2 2 -4 32 -5 65 -2 34 3 61 3 61 0 0 -3 38 -3
85 0 46 3 95 2 107 -1 13 -3 40 -2 60 1 20 4 42 4 48 0 6 -4 29 -4 50 0 22 4
42 5 44 2 9 -8 86 -7 86 1 0 5 4 6 9 3 8 -5 61 -7 131 -5 8 0 83 0 165 -1 83
-1 155 0 160 1 6 1 13 1 18 0 4 -1 26 -2 48 -3 40 -1 40 -2 39 -37 -1 -20 -1
-40 0 -46 1 -5 1 -14 0 -20 -1 -5 -2 -56 -2 -113 l1 -104 -65 4 c-35 2 -64 0
-64 -3 0 -4 -15 -4 -33 0 -18 5 -41 5 -52 1 -10 -4 -33 -4 -49 0 -17 3 -50 3
-73 0 -24 -4 -43 -4 -43 0 0 3 -23 4 -50 0 -28 -4 -50 -4 -50 -1 0 3 -28 5
-62 3 -35 -1 -89 -3 -121 -5 -31 -1 -57 0 -57 3 0 3 -26 4 -57 2 -32 -1 -76
-2 -98 -1 -22 0 -46 0 -52 0 -25 -2 -44 -2 -98 -1 -30 1 -59 -1 -64 -4 -5 -4
-12 -2 -15 2 -3 5 -26 6 -51 2 -25 -4 -45 -4 -45 -1 0 3 -26 5 -57 3 -32 -1
-76 -2 -98 -1 -22 0 -46 0 -52 0 -25 -2 -44 -2 -98 -1 -30 1 -59 -1 -64 -4 -5
-4 -12 -2 -15 2 -3 5 -26 6 -51 2 -25 -4 -45 -4 -45 -1 0 4 -31 4 -70 0 -54
-5 -77 -12 -105 -33 -41 -32 -68 -88 -63 -134 2 -17 1 -32 -2 -32 -4 0 -4 -20
0 -45 4 -25 5 -47 2 -49 -6 -7 -8 -106 -2 -106 3 0 5 -30 4 -66 -1 -57 3 -71
27 -104 56 -77 -153 -70 2217 -67 l2129 2 37 29 c41 31 66 79 66 124 0 47 -1
115 -2 121 0 3 0 8 1 11 5 13 5 110 1 110 -3 0 -5 30 -4 66 1 57 -3 71 -27
104 -16 22 -38 44 -51 51 -32 17 -187 27 -209 13 -4 -2 -10 0 -13 4 -3 5 -26
6 -51 2 -25 -4 -45 -4 -45 -1 0 3 -26 5 -57 3 -32 -1 -76 -2 -98 -1 -22 0 -46
0 -52 0 -25 -2 -44 -2 -98 -1 -30 1 -59 -1 -64 -4 -5 -4 -12 -2 -15 2 -3 5
-26 6 -51 2 -25 -4 -45 -4 -45 -1 0 3 -26 5 -57 3 -32 -1 -76 -2 -98 -1 -22 0
-46 0 -52 0 -25 -2 -44 -2 -98 -1 -30 1 -59 -1 -64 -4 -5 -4 -12 -2 -15 2 -3
5 -26 6 -51 2 -25 -4 -45 -4 -45 -1 0 3 -26 5 -57 3 -32 -1 -76 -2 -98 -1 -22
0 -46 0 -52 0 -25 -2 -44 -2 -98 -1 -30 1 -59 -1 -64 -4 -5 -4 -12 -3 -15 2
-3 5 -20 7 -38 5 -50 -5 -119 -4 -130 3 -6 4 -8 20 -6 36 3 16 1 31 -4 34 -5
3 -6 10 -2 15 3 6 6 59 5 118 l0 107 41 3 c23 1 45 4 49 7 4 2 10 1 13 -4 2
-4 32 -5 65 -2 34 3 61 3 61 0 0 -3 38 -3 85 0 46 3 95 2 107 -1 13 -3 40 -2
60 1 20 4 42 4 48 0 6 -4 29 -4 51 0 22 4 41 4 44 0 2 -4 25 -4 50 0 25 4 45
4 45 1 0 -3 24 -5 52 -4 87 4 90 4 180 3 48 -1 92 1 97 4 5 4 12 3 15 -2 2 -4
32 -5 65 -2 34 3 61 3 61 0 0 -3 50 -5 110 -5 61 0 110 3 110 6 0 3 23 3 50
-1 28 -4 50 -3 50 0 0 4 19 4 43 1 23 -4 59 -4 79 0 21 3 40 4 42 1 7 -7 324
-4 335 2 5 4 12 3 15 -2 2 -4 32 -5 65 -2 34 3 61 2 61 -3 0 -4 4 -6 9 -3 4 3
50 5 102 5 188 0 219 3 302 33 135 47 244 158 291 298 l26 75 -3 1690 c-2
1635 -3 1692 -21 1740 -25 65 -73 141 -121 188 -42 42 -134 99 -180 112 -17 4
-37 11 -45 14 -25 9 -5602 10 -5650 0z m456 -629 c10 4 35 4 55 0 21 -4 43 -4
49 0 6 4 28 4 48 0 20 -3 54 -3 75 1 20 3 39 3 42 -1 2 -4 25 -4 50 0 25 4 45
4 45 1 0 -5 40 -5 125 0 11 0 36 0 55 0 19 -1 42 -1 50 0 8 0 40 0 70 0 82 -1
92 -1 130 0 19 0 42 0 50 0 63 -2 123 0 131 5 5 3 9 1 9 -4 0 -4 21 -6 48 -3
26 3 67 4 92 1 25 -3 56 -3 70 1 14 3 34 3 45 -1 11 -4 33 -4 50 0 16 3 41 4
54 0 14 -3 48 -3 75 0 28 3 73 3 99 0 27 -4 51 -2 53 2 3 5 10 6 15 2 13 -7
216 -7 228 0 5 4 12 3 15 -2 2 -4 32 -5 65 -2 34 3 61 3 61 0 0 -6 160 -2 177
4 7 3 14 2 17 -2 3 -4 32 -5 65 -2 34 3 61 3 61 0 0 -6 160 -2 177 4 7 3 14 2
17 -2 3 -4 32 -5 65 -2 34 3 61 3 61 0 0 -6 160 -2 177 4 7 3 14 2 17 -2 3 -4
32 -5 65 -2 34 3 61 3 61 0 0 -3 50 -5 110 -5 61 0 110 3 110 6 0 3 23 3 50
-1 28 -4 50 -3 50 0 0 4 19 4 43 0 23 -3 56 -3 74 1 17 3 37 3 43 -1 6 -4 29
-4 50 0 22 4 42 5 44 3 7 -7 126 -9 126 -2 0 3 22 3 50 -1 27 -4 50 -3 50 0 0
4 19 4 43 0 23 -3 56 -3 74 1 17 3 37 3 43 -1 6 -4 29 -4 50 0 22 4 42 5 44 3
7 -7 126 -9 126 -2 0 3 23 3 50 -1 28 -4 50 -3 50 0 0 4 19 4 43 0 23 -3 56
-3 74 1 17 3 37 3 43 -1 6 -4 29 -4 50 0 22 4 42 5 44 3 7 -7 126 -9 126 -2 0
3 23 3 50 -1 28 -4 50 -2 50 2 0 5 4 7 9 4 5 -3 38 -6 72 -6 182 -1 173 1 167
-42 -3 -16 -1 -31 3 -34 5 -2 6 -10 3 -18 -7 -17 -10 -146 -4 -146 3 0 4 -26
3 -57 -2 -32 -4 -86 -5 -121 -2 -34 0 -62 3 -62 3 0 3 -22 -1 -50 -4 -27 -4
-50 0 -50 4 0 4 -21 0 -48 -3 -26 -3 -59 0 -72 4 -14 3 -39 0 -55 -4 -17 -4
-39 0 -50 4 -11 4 -31 1 -45 -4 -14 -4 -45 -1 -70 3 -25 2 -66 -1 -92 -3 -27
-1 -48 3 -48 5 0 7 -4 4 -9 -5 -8 -7 -70 -5 -131 1 -20 0 -170 -1 -195 0 -11
-2 -44 -3 -73 -1 -28 0 -52 3 -52 3 0 4 -26 3 -57 -2 -32 -4 -86 -5 -121 -2
-34 0 -62 3 -62 3 0 3 -22 -1 -50 -4 -27 -4 -50 0 -50 4 0 4 -21 0 -48 -3 -26
-3 -59 0 -72 4 -14 3 -39 0 -55 -4 -17 -4 -39 0 -50 4 -11 4 -31 1 -45 -4 -14
-4 -45 -1 -70 3 -25 2 -66 -1 -92 -3 -27 -3 -48 1 -48 4 0 4 -21 0 -48 -3 -26
-3 -58 0 -71 3 -13 3 -49 0 -80 -3 -31 -3 -72 1 -92 3 -20 3 -44 -1 -53 -3
-10 -3 -41 0 -69 4 -42 -3 -149 -9 -126 0 3 -21 3 -46 -1 -25 -4 -47 -4 -50
-1 -2 4 -31 4 -64 1 -34 -3 -61 -3 -61 0 0 3 -49 5 -110 5 -60 0 -110 -3 -110
-6 0 -3 -22 -3 -50 1 -27 4 -50 3 -50 0 0 -4 -19 -4 -42 -1 -24 4 -60 4 -81 0
-21 -3 -40 -2 -43 3 -3 4 -10 6 -15 3 -5 -4 -49 -6 -97 -5 -137 2 -213 1 -222
-5 -5 -3 -11 -2 -14 3 -2 4 -32 5 -65 2 -34 -3 -61 -3 -61 0 0 3 -38 3 -85 0
-46 -3 -95 -2 -107 1 -13 3 -40 2 -60 -1 -20 -4 -42 -4 -48 0 -6 4 -29 4 -51
0 -22 -4 -41 -4 -44 0 -2 4 -25 4 -50 0 -25 -4 -45 -4 -45 -1 0 5 -32 5 -125
1 -11 -1 -67 -1 -125 -1 -58 1 -133 0 -168 -1 -34 -2 -62 -1 -62 2 0 3 -24 4
-52 3 -29 -1 -64 -2 -78 -3 -14 0 -45 -1 -70 -1 -25 0 -49 0 -55 0 -5 0 -66 0
-135 0 -69 1 -153 0 -188 -1 -34 -2 -62 -1 -62 2 0 3 -24 4 -52 3 -29 -1 -64
-2 -78 -3 -23 -1 -95 -1 -130 -1 -8 0 -58 0 -110 0 -52 -1 -102 0 -110 0 -55
2 -102 1 -108 -3 -5 -3 -14 -1 -21 3 -7 5 -30 5 -52 1 -22 -4 -41 -4 -44 0 -2
4 -25 4 -50 0 -25 -4 -45 -4 -45 -1 0 3 -24 5 -52 4 -87 -4 -90 -4 -180 -3
-48 1 -92 -1 -97 -4 -5 -4 -12 -3 -15 2 -2 4 -32 5 -65 2 -34 -3 -61 -3 -61 0
0 3 -49 5 -110 5 -60 0 -110 -3 -110 -6 0 -3 -22 -3 -50 1 -27 4 -50 3 -50 0
0 -4 -19 -4 -42 -1 -24 4 -60 4 -81 0 -21 -3 -40 -2 -43 3 -3 4 -10 6 -15 3
-5 -4 -49 -6 -97 -5 -137 2 -213 1 -222 -5 -5 -3 -11 -2 -14 3 -2 4 -31 5 -63
2 -32 -3 -78 -3 -103 0 l-45 5 -5 45 c-3 25 -3 68 0 96 3 27 3 60 0 72 -3 13
-3 61 0 107 3 47 3 85 0 85 -3 0 -3 27 0 61 3 33 2 62 -2 65 -4 3 -5 10 -2 17
6 17 10 177 4 177 -3 0 -3 27 0 61 3 33 2 63 -2 65 -5 3 -6 9 -3 14 3 5 6 49
5 97 -1 106 -1 115 0 176 0 27 -2 53 -5 58 -4 5 -2 9 3 9 4 0 6 23 2 50 -4 28
-4 50 -1 50 7 0 5 119 -2 126 -2 2 -1 22 3 44 4 21 4 44 0 50 -4 6 -4 26 -1
43 4 18 4 51 1 75 -4 23 -4 42 0 42 3 0 4 23 0 50 -4 28 -4 50 -1 50 7 0 5
119 -2 126 -2 2 -1 22 3 44 4 21 4 43 1 49 -4 6 -4 38 -1 71 3 33 3 65 0 69
-3 5 -3 48 0 95 3 47 3 86 0 86 -3 0 -3 27 0 61 3 33 2 62 -2 65 -4 3 -5 10
-2 17 6 17 10 177 4 177 -3 0 -3 27 0 61 3 33 3 62 -1 64 -3 3 -3 25 1 50 4
25 4 46 1 46 -23 6 84 13 126 9 28 -3 59 -3 69 0z"/>
</g>
</svg>
